# xmcd CD database file
#
# Track frame offsets:
#	150
#	16079
#	38418
#	59360
#	80274
#	95937
#	110292
#	132470
#	161146
#	179134
#	200599
#
# Disc length: 2975 seconds
#
# Revision: 0
# Processed by: cddbd v1.5.2PL0 Copyright (c) Steve Scherf et al.
# Submitted via: CDex 1.51
#
DISCID=940b9d0b
DTITLE=Susannah Espie - A Few More Days
DYEAR=2005
DGENRE=Country
TTITLE0=Mediocre Blues
TTITLE1=A Few More Days
TTITLE2=Cruel to Me
TTITLE3=Lay Down My Old Guitar
TTITLE4=I Know I've Been Changed
TTITLE5=Two More Bottles of Wine
TTITLE6=Lazy Farmer
TTITLE7=Wedding Night
TTITLE8=Time
TTITLE9=Cool Rain
TTITLE10=I Don't Know If You're the One
EXTD=
EXTT0=
EXTT1=
EXTT2=
EXTT3=
EXTT4=
EXTT5=
EXTT6=
EXTT7=
EXTT8=
EXTT9=
EXTT10=
PLAYORDER=
